<svg width="32" height="28" xmlns="http://www.w3.org/2000/svg" xmlns:xlink="http://www.w3.org/1999/xlink" xml:space="preserve" overflow="hidden"><defs><clipPath id="clip0"><rect x="1640" y="192" width="32" height="28"/></clipPath><clipPath id="clip1"><rect x="1640" y="192" width="32" height="28"/></clipPath></defs><g clip-path="url(#clip0)" transform="translate(-1640 -192)"><g clip-path="url(#clip1)"><path d="M1645.87 203.148C1641.02 208.1 1644.99 212.066 1646.33 213.168 1644.7 214.967 1643.45 216.947 1643.01 219.026 1642.91 219.5 1643.47 219.933 1644.26 219.992 1644.32 219.997 1644.38 220 1644.44 220 1645.16 219.999 1645.77 219.68 1645.87 219.243 1647.31 212.374 1659.17 206.375 1660.91 205.528 1661.36 205.468 1662.22 205.442 1662.64 205.976 1662.98 206.404 1662.76 206.704 1662.67 206.797 1655.4 210.931 1652.25 213.78 1653.55 215.038 1653.82 215.299 1654.32 215.447 1654.82 215.445 1660.09 215.345 1664.08 214.211 1666.66 212.073 1672.83 206.971 1668.59 198.002 1668.41 197.623 1668.27 197.33 1667.88 197.104 1667.39 197.028 1666.9 196.951 1666.38 197.035 1666.02 197.25 1663.46 198.767 1660.34 199.093 1657.03 199.438 1652.91 199.866 1648.65 200.311 1645.87 203.148Z" fill="#FFFFFF" fill-rule="evenodd" fill-opacity="1"/></g></g></svg>